<svg width="20" height="20" viewBox="0 0 20 20" fill="none" xmlns="http://www.w3.org/2000/svg">
<circle opacity="0.25" cx="10" cy="10" r="10" fill="#F5A623"/>
<path d="M14.0886 7.52617L8.56776 13.047C8.54355 13.0714 8.51475 13.0908 8.48301 13.104C8.45128 13.1172 8.41724 13.124 8.38286 13.124C8.34848 13.124 8.31445 13.1172 8.28271 13.104C8.25098 13.0908 8.22218 13.0714 8.19797 13.047L5.39068 10.2397C5.36627 10.2155 5.34689 10.1867 5.33367 10.155C5.32045 10.1232 5.31364 10.0892 5.31364 10.0548C5.31364 10.0204 5.32045 9.9864 5.33367 9.95467C5.34689 9.92293 5.36627 9.89413 5.39068 9.86992L5.75526 9.50534C5.77947 9.48093 5.80827 9.46155 5.84 9.44833C5.87174 9.43511 5.90578 9.4283 5.94015 9.4283C5.97453 9.4283 6.00857 9.43511 6.0403 9.44833C6.07204 9.46155 6.10084 9.48093 6.12505 9.50534L8.38026 11.7605L13.3542 6.78659C13.4038 6.73854 13.4701 6.71167 13.5391 6.71167C13.6081 6.71167 13.6745 6.73854 13.724 6.78659L14.0886 7.15638C14.113 7.18059 14.1324 7.20939 14.1456 7.24112C14.1588 7.27286 14.1656 7.30689 14.1656 7.34127C14.1656 7.37565 14.1588 7.40969 14.1456 7.44142C14.1324 7.47316 14.113 7.50196 14.0886 7.52617Z" fill="#F5A623"/>
</svg>
