<svg width="174" height="32" viewBox="0 0 174 32" fill="none" xmlns="http://www.w3.org/2000/svg">
<path d="M56.0895 13.7672V15.3912H52.2495V17.18H55.8999V18.804H52.2495V22.052H50.3999V13.7672H56.0895Z" fill="white"/>
<path d="M67.1357 13.7672H68.9854V22.052H67.1357V13.7672Z" fill="white"/>
<path d="M84.0152 15.3672V22.052H82.1664V15.3672H79.8184V13.7672H86.36V15.3672H84.0152Z" fill="white"/>
<path d="M103.915 16.5176C103.915 17.8432 103.39 18.7024 102.338 19.0896L104.434 22.0536H102.162L100.324 19.4096H99.0439V22.0536H97.1943V13.768H100.334C101.622 13.768 102.539 13.9856 103.09 14.42C103.639 14.8544 103.915 15.5528 103.915 16.5176ZM101.686 17.5024C101.917 17.2968 102.031 16.9696 102.031 16.5232C102.031 16.076 101.912 15.7704 101.675 15.604C101.437 15.4384 101.024 15.3552 100.431 15.3552H99.0447V17.8096H100.394C101.026 17.8104 101.457 17.7064 101.686 17.5024Z" fill="white"/>
<path d="M121.196 22.0536L120.425 20.2632H116.953L116.182 22.0536H114.213L117.793 13.768H119.584L123.164 22.0536H121.196ZM118.697 16.2328L117.653 18.64H119.725L118.697 16.2328Z" fill="white"/>
<path d="M139.937 14.852C140.724 15.5752 141.12 16.58 141.12 17.8704C141.12 19.1576 140.735 20.1752 139.963 20.928C139.194 21.6776 138.018 22.0536 136.438 22.0536H133.606V13.768H136.532C138.012 13.7672 139.145 14.1288 139.937 14.852ZM138.581 19.7776C139.034 19.3504 139.261 18.7304 139.261 17.916C139.261 17.1016 139.034 16.476 138.581 16.0368C138.126 15.5992 137.427 15.3792 136.489 15.3792H135.458V20.4168H136.631C137.476 20.4168 138.124 20.2048 138.581 19.7776Z" fill="white"/>
<path d="M152.203 13.7672H154.053V22.052H152.203V13.7672Z" fill="white"/>
<path d="M172.542 20.9096C171.707 21.7272 170.674 22.136 169.45 22.136C168.226 22.136 167.195 21.7272 166.356 20.9096C165.518 20.092 165.101 19.0744 165.101 17.8568C165.101 16.6408 165.518 15.6224 166.356 14.8056C167.195 13.9888 168.225 13.5792 169.45 13.5792C170.674 13.5792 171.707 13.988 172.542 14.8056C173.38 15.6224 173.8 16.6416 173.8 17.8568C173.8 19.0744 173.38 20.0912 172.542 20.9096ZM171.915 17.8624C171.915 17.1248 171.678 16.4936 171.205 15.9728C170.729 15.452 170.148 15.1896 169.456 15.1896C168.764 15.1896 168.181 15.452 167.707 15.9728C167.233 16.4936 166.994 17.1248 166.994 17.8624C166.994 18.6016 167.233 19.2312 167.707 19.7464C168.181 20.2648 168.764 20.5232 169.456 20.5232C170.148 20.5232 170.729 20.2656 171.205 19.7464C171.678 19.2312 171.915 18.6016 171.915 17.8624Z" fill="white"/>
<path d="M25.1136 26.444V12.156H19.5528V26.444H15.4152V6.09601H9.85596V29.2208C9.85596 30.7568 11.1 32.0008 12.636 32.0008H38.9432V26.4448H25.1136V26.444Z" fill="white"/>
<path d="M34.8071 18.3104H29.2471V22.7936H34.8071V18.3104Z" fill="white"/>
<path d="M0.158203 29.22C0.158203 30.756 1.4014 32 2.9382 32H4.907H5.7174V26.444V0.040802H0.158203V29.22Z" fill="white"/>
</svg>
