<svg width="32" height="32" viewBox="0 0 32 32" fill="none" xmlns="http://www.w3.org/2000/svg">
<path fill-rule="evenodd" clip-rule="evenodd" d="M16 1.21875C24.1636 1.21875 30.7815 7.83667 30.7815 16.0003C30.7815 24.1639 24.1636 30.7818 16 30.7818C7.83638 30.7818 1.21846 24.1639 1.21846 16.0003C1.21846 7.83667 7.83638 1.21875 16 1.21875ZM17.4803 8.60948C15.2745 8.60948 13.8327 9.89074 13.8327 12.2102V14.249H11.3808V16.9241H13.8327V23.391H16.8503V16.9241H19.1004L19.5288 14.249H16.8503V12.513C16.8503 11.7812 17.2245 11.0678 18.4241 11.0678H19.6418V8.79021C19.6418 8.79021 18.5368 8.60948 17.4803 8.60948Z" fill="white"/>
</svg>
