<svg width="32" height="32" viewBox="0 0 32 32" fill="none" xmlns="http://www.w3.org/2000/svg">
<path fill-rule="evenodd" clip-rule="evenodd" d="M30.7815 16.0003C30.7815 7.83667 24.1636 1.21875 16 1.21875C7.83638 1.21875 1.21846 7.83667 1.21846 16.0003C1.21846 24.1639 7.83638 30.7818 16 30.7818C24.1636 30.7818 30.7815 24.1639 30.7815 16.0003ZM8.46447 8.46447C9.40215 7.52678 10.6739 7 12 7H20C21.3261 7 22.5979 7.52678 23.5355 8.46447C24.4732 9.40215 25 10.6739 25 12V20C25 21.3261 24.4732 22.5979 23.5355 23.5355C22.5979 24.4732 21.3261 25 20 25H12C10.6739 25 9.40215 24.4732 8.46447 23.5355C7.52678 22.5979 7 21.3261 7 20V12C7 10.6739 7.52678 9.40215 8.46447 8.46447ZM22.2952 22.2952C22.9041 21.6863 23.2474 20.8611 23.25 20V12C23.2474 11.1389 22.9041 10.3137 22.2952 9.70482C21.6863 9.09589 20.8611 8.75264 20 8.75H12C11.1389 8.75264 10.3137 9.09589 9.70482 9.70482C9.09589 10.3137 8.75264 11.1389 8.75 12V20C8.75264 20.8611 9.09589 21.6863 9.70482 22.2952C10.3137 22.9041 11.1389 23.2474 12 23.25H20C20.8611 23.2474 21.6863 22.9041 22.2952 22.2952ZM21.5815 11.8056C21.6914 11.6411 21.75 11.4478 21.75 11.25C21.75 10.9848 21.6446 10.7304 21.4571 10.5429C21.2696 10.3554 21.0152 10.25 20.75 10.25C20.5522 10.25 20.3589 10.3086 20.1944 10.4185C20.03 10.5284 19.9018 10.6846 19.8261 10.8673C19.7504 11.05 19.7306 11.2511 19.7692 11.4451C19.8078 11.6391 19.903 11.8173 20.0429 11.9571C20.1827 12.097 20.3609 12.1922 20.5549 12.2308C20.7489 12.2694 20.95 12.2496 21.1327 12.1739C21.3154 12.0982 21.4716 11.97 21.5815 11.8056ZM13.4999 12.2584C14.24 11.7639 15.11 11.5 16 11.5C16.5913 11.4987 17.1771 11.6142 17.7236 11.8399C18.2702 12.0655 18.7668 12.397 19.1849 12.8151C19.603 13.2332 19.9345 13.7298 20.1601 14.2764C20.3858 14.8229 20.5013 15.4087 20.5 16C20.5 16.89 20.2361 17.76 19.7416 18.5001C19.2471 19.2401 18.5443 19.8169 17.7221 20.1575C16.8998 20.4981 15.995 20.5872 15.1221 20.4135C14.2492 20.2399 13.4474 19.8113 12.818 19.182C12.1887 18.5526 11.7601 17.7508 11.5865 16.8779C11.4128 16.005 11.5019 15.1002 11.8425 14.2779C12.1831 13.4557 12.7599 12.7529 13.4999 12.2584ZM14.4722 18.2865C14.9244 18.5887 15.4561 18.75 16 18.75C16.7293 18.75 17.4288 18.4603 17.9445 17.9445C18.4603 17.4288 18.75 16.7293 18.75 16C18.75 15.4561 18.5887 14.9244 18.2865 14.4722C17.9844 14.0199 17.5549 13.6675 17.0524 13.4593C16.5499 13.2512 15.997 13.1967 15.4635 13.3028C14.9301 13.4089 14.4401 13.6709 14.0555 14.0555C13.6709 14.4401 13.4089 14.9301 13.3028 15.4635C13.1967 15.997 13.2512 16.5499 13.4593 17.0524C13.6675 17.5549 14.0199 17.9844 14.4722 18.2865Z" fill="white"/>
</svg>
