<svg width="32" height="32" viewBox="0 0 32 32" fill="none" xmlns="http://www.w3.org/2000/svg">
<g clip-path="url(#clip0)">
<path fill-rule="evenodd" clip-rule="evenodd" d="M31.9649 16.0175C31.9649 20.2563 30.2811 24.3215 27.2838 27.3188C24.2865 30.3161 20.2213 32 15.9824 32C14.7717 32.0006 13.565 31.8612 12.3864 31.5845C12.2667 31.5586 12.1549 31.5046 12.0603 31.4267C11.9658 31.3489 11.8913 31.2495 11.843 31.1369C11.7882 31.0278 11.7596 30.9074 11.7596 30.7853C11.7596 30.6632 11.7882 30.5428 11.843 30.4337L12.0827 29.9702C12.4939 29.1953 12.7951 28.3669 12.9777 27.5089L14.0326 22.5544C14.6537 23.1411 15.3878 23.5953 16.1902 23.8893C16.9925 24.1833 17.8462 24.311 18.6995 24.2645C23.6381 24.2645 26.9624 20.3967 26.9624 14.675C26.9624 9.193 22.1677 5.0855 15.9665 5.0855C9.76526 5.0855 4.97052 9.40077 4.97052 14.675C4.97985 15.8789 5.23729 17.068 5.72678 18.1679C6.21626 19.2679 6.92727 20.2551 7.8154 21.068C7.91628 21.168 8.04244 21.2386 8.18039 21.2724C8.31834 21.3062 8.46288 21.3018 8.59854 21.2598C8.73579 21.2227 8.85971 21.1475 8.9559 21.0428C9.0521 20.9381 9.11661 20.8083 9.14194 20.6684L9.46159 19.23C9.48481 19.1096 9.48109 18.9855 9.4507 18.8667C9.4203 18.7479 9.36399 18.6372 9.28579 18.5427C8.33734 17.5008 7.80296 16.1478 7.78343 14.7389C7.78343 10.983 11.4434 7.93038 15.9665 7.93038C20.4895 7.93038 24.1495 10.7912 24.1495 14.7389C24.1495 18.0473 22.7271 21.5634 18.6995 21.5634C18.2487 21.612 17.7927 21.5704 17.3581 21.4412C16.9235 21.3119 16.519 21.0975 16.168 20.8105C15.817 20.5234 15.5266 20.1695 15.3137 19.7692C15.1007 19.3689 14.9695 18.9303 14.9276 18.4788L15.9665 13.6841C16.0905 13.2818 16.1248 12.8571 16.0668 12.4401C16.0088 12.0231 15.86 11.6239 15.6308 11.2707C15.4936 11.0578 15.3104 10.8783 15.0946 10.7456C14.8789 10.6128 14.6361 10.5301 14.3842 10.5036C12.0348 10.5036 11.9069 14.4512 11.9069 15.2983C11.8952 16.3376 11.9808 17.3756 12.1626 18.3989L10.1169 27.6208C9.94405 28.4021 9.8742 29.2027 9.9091 30.0022C9.91039 30.0892 9.89073 30.1753 9.85179 30.2532C9.81285 30.3311 9.75577 30.3985 9.68535 30.4497C9.61003 30.4932 9.52459 30.5161 9.43762 30.5161C9.35065 30.5161 9.26521 30.4932 9.18989 30.4497C6.5971 29.2323 4.37911 27.3406 2.76797 24.9723C1.15684 22.604 0.211767 19.8462 0.0316385 16.9876C-0.14849 14.1289 0.442945 11.2743 1.74406 8.72252C3.04518 6.17073 5.00817 4.0155 7.42764 2.48232C9.84712 0.949134 12.6342 0.0943411 15.4972 0.00737056C18.3602 -0.0795999 21.194 0.604448 23.7021 1.98795C26.2102 3.37145 28.3004 5.40355 29.754 7.87166C31.2076 10.3398 31.9712 13.1532 31.9649 16.0175Z" fill="white"/>
</g>
<defs>
<clipPath id="clip0">
<rect width="32" height="32" fill="white"/>
</clipPath>
</defs>
</svg>
