<svg width="32" height="32" viewBox="0 0 32 32" fill="none" xmlns="http://www.w3.org/2000/svg">
<path fill-rule="evenodd" clip-rule="evenodd" d="M16 1.21875C24.1636 1.21875 30.7815 7.83667 30.7815 16.0003C30.7815 24.1639 24.1636 30.7818 16 30.7818C7.83638 30.7818 1.21846 24.1639 1.21846 16.0003C1.21846 7.83667 7.83638 1.21875 16 1.21875ZM18.8418 10.4596C17.163 10.4596 15.8124 11.8196 15.8124 13.4891C15.8124 13.7235 15.8405 13.958 15.8874 14.1831C13.3738 14.0518 11.1322 12.8513 9.64091 11.0129C9.37827 11.4632 9.22824 11.979 9.22824 12.5417C9.22824 13.5922 9.76283 14.5207 10.5788 15.0647C10.0818 15.046 9.61276 14.9053 9.20947 14.6802V14.7177C9.20947 16.1902 10.2506 17.4095 11.6387 17.6909C11.3855 17.7565 11.1135 17.7941 10.8415 17.7941C10.6445 17.7941 10.4569 17.7753 10.2693 17.7472C10.6539 18.9477 11.77 19.82 13.1018 19.8481C12.0607 20.6641 10.757 21.1424 9.3408 21.1424C9.08755 21.1424 8.8531 21.1331 8.60923 21.1049C9.95045 21.9678 11.5449 22.4649 13.2613 22.4649C18.8325 22.4649 21.8807 17.8503 21.8807 13.8455C21.8807 13.7142 21.8807 13.5828 21.8713 13.4515C22.4622 13.0201 22.9781 12.4855 23.3907 11.8852C22.8467 12.1197 22.2559 12.2886 21.6462 12.3542C22.2746 11.979 22.7529 11.3881 22.978 10.6847C22.3965 11.0317 21.74 11.285 21.0553 11.4163C20.5019 10.8254 19.7141 10.4596 18.8418 10.4596Z" fill="white"/>
</svg>
