<svg width="220" height="40" viewBox="0 0 220 40" fill="none" xmlns="http://www.w3.org/2000/svg">
<g clip-path="url(#clip0)">
<path d="M71.362 17.2085V19.2385H66.562V21.4745H71.125V23.5045H66.562V27.5645H64.25V17.2085H71.362Z" fill="white"/>
<path d="M85.17 17.2085H87.482V27.5645H85.17V17.2085Z" fill="white"/>
<path d="M106.269 19.2085V27.5645H103.958V19.2085H101.023V17.2085H109.2V19.2085H106.269Z" fill="white"/>
<path d="M131.144 20.6465C131.144 22.3035 130.487 23.3775 129.172 23.8615L131.793 27.5665H128.952L126.655 24.2615H125.055V27.5665H122.743V17.2095H126.667C128.277 17.2095 129.424 17.4815 130.112 18.0245C130.799 18.5675 131.144 19.4405 131.144 20.6465ZM128.357 21.8775C128.646 21.6205 128.789 21.2115 128.789 20.6535C128.789 20.0945 128.64 19.7125 128.344 19.5045C128.046 19.2975 127.53 19.1935 126.789 19.1935H125.056V22.2615H126.743C127.533 22.2625 128.071 22.1325 128.357 21.8775Z" fill="white"/>
<path d="M152.745 27.5665L151.782 25.3285H147.442L146.478 27.5665H144.017L148.492 17.2095H150.73L155.205 27.5665H152.745ZM149.621 20.2905L148.316 23.2995H150.907L149.621 20.2905Z" fill="white"/>
<path d="M176.171 18.5645C177.155 19.4685 177.65 20.7245 177.65 22.3375C177.65 23.9465 177.169 25.2185 176.204 26.1595C175.242 27.0965 173.773 27.5665 171.797 27.5665H168.258V17.2095H171.915C173.765 17.2085 175.181 17.6605 176.171 18.5645ZM174.476 24.7215C175.042 24.1875 175.326 23.4125 175.326 22.3945C175.326 21.3765 175.042 20.5945 174.476 20.0455C173.907 19.4985 173.034 19.2235 171.861 19.2235H170.572V25.5205H172.039C173.095 25.5205 173.905 25.2555 174.476 24.7215Z" fill="white"/>
<path d="M191.504 17.2085H193.816V27.5645H191.504V17.2085Z" fill="white"/>
<path d="M216.928 26.1366C215.884 27.1586 214.593 27.6696 213.063 27.6696C211.533 27.6696 210.244 27.1586 209.195 26.1366C208.148 25.1146 207.626 23.8426 207.626 22.3206C207.626 20.8006 208.148 19.5276 209.195 18.5066C210.244 17.4856 211.531 16.9736 213.063 16.9736C214.593 16.9736 215.884 17.4846 216.928 18.5066C217.975 19.5276 218.5 20.8016 218.5 22.3206C218.5 23.8426 217.975 25.1136 216.928 26.1366ZM216.144 22.3276C216.144 21.4056 215.848 20.6166 215.256 19.9656C214.662 19.3146 213.935 18.9866 213.07 18.9866C212.205 18.9866 211.476 19.3146 210.884 19.9656C210.291 20.6166 209.993 21.4056 209.993 22.3276C209.993 23.2516 210.291 24.0386 210.884 24.6826C211.476 25.3306 212.205 25.6536 213.07 25.6536C213.935 25.6536 214.662 25.3316 215.256 24.6826C215.848 24.0386 216.144 23.2516 216.144 22.3276Z" fill="white"/>
<path d="M32.642 33.0546V15.1946H25.691V33.0546H20.519V7.61963H13.57V36.5256C13.57 38.4456 15.125 40.0006 17.045 40.0006H49.929V33.0556H32.642V33.0546Z" fill="white"/>
<path d="M44.759 22.8877H37.809V28.4917H44.759V22.8877Z" fill="white"/>
<path d="M1.448 36.5248C1.448 38.4448 3.002 39.9998 4.923 39.9998H7.384H8.397V33.0548V0.0507812H1.448V36.5248Z" fill="white"/>
</g>
<defs>
<clipPath id="clip0">
<rect width="220" height="40" fill="white"/>
</clipPath>
</defs>
</svg>
